<svg xmlns="http://www.w3.org/2000/svg" viewBox="0 0 100 100" fill="none">
  <defs>
    <clipPath id="sc">
      <path d="M50,5 Q36,16 20,11 L5,42 C5,62 22,82 50,97 C78,82 95,62 95,42 L80,11 Q64,16 50,5 Z"/>
    </clipPath>
    <filter id="sh" x="-12%" y="-8%" width="124%" height="126%">
      <feDropShadow dx="0" dy="4" stdDeviation="5" flood-color="#0A1F50" flood-opacity="0.5"/>
    </filter>
    <pattern id="net" x="0" y="0" width="4" height="4" patternUnits="userSpaceOnUse">
      <rect width="4" height="4" fill="#0A2F7A"/>
      <line x1="0" y1="0" x2="4" y2="0" stroke="rgba(255,255,255,0.50)" stroke-width="0.5"/>
      <line x1="0" y1="0" x2="0" y2="4" stroke="rgba(255,255,255,0.50)" stroke-width="0.5"/>
    </pattern>
  </defs>
  <path d="M50,5 Q36,16 20,11 L5,42 C5,62 22,82 50,97 C78,82 95,62 95,42 L80,11 Q64,16 50,5 Z" fill="#0A2060" filter="url(#sh)"/>
  <g clip-path="url(#sc)">
    <path d="M50,5 Q36,16 20,11 L5,42 C5,62 22,82 50,97 C78,82 95,62 95,42 L80,11 Q64,16 50,5 Z" fill="#0D2860"/>
    <path d="M50,13 Q38,23 24,18 L14,44 C14,62 28,77 50,90 C72,77 86,62 86,44 L76,18 Q62,23 50,13 Z" fill="white"/>
    <path d="M14,44 L24,18 Q38,23 50,13 Q62,23 76,18 L86,44 Z" fill="#0D2860"/>
    <path d="M50,13 Q38,23 24,18 L14,44 C14,62 28,77 50,90 C72,77 86,62 86,44 L76,18 Q62,23 50,13 Z" fill="none" stroke="#3CB0F0" stroke-width="2.5"/>
    <line x1="14" y1="44" x2="86" y2="44" stroke="#3CB0F0" stroke-width="0.8"/>
    <text x="50" y="34" text-anchor="middle" dominant-baseline="central" font-size="12" font-weight="900" font-family="Arial,sans-serif" fill="white" letter-spacing="2">צופן</text>
    <circle cx="50" cy="58" r="12" fill="#0A2F7A"/>
    <circle cx="50" cy="58" r="12" fill="url(#net)"/>
    <circle cx="50" cy="58" r="10.5" fill="rgba(255,255,255,0.07)" stroke="white" stroke-width="1.3"/>
    <line x1="50" y1="47.5" x2="50" y2="49" stroke="white" stroke-width="1.3" stroke-linecap="round"/>
    <line x1="59.5" y1="58" x2="58" y2="58" stroke="white" stroke-width="1.3" stroke-linecap="round"/>
    <line x1="50" y1="68.5" x2="50" y2="67" stroke="white" stroke-width="1.3" stroke-linecap="round"/>
    <line x1="40.5" y1="58" x2="42" y2="58" stroke="white" stroke-width="1.3" stroke-linecap="round"/>
    <line x1="50" y1="58" x2="44.2" y2="54.6" stroke="white" stroke-width="2.3" stroke-linecap="round"/>
    <line x1="50" y1="58" x2="57.4" y2="53.6" stroke="white" stroke-width="1.8" stroke-linecap="round"/>
    <circle cx="50" cy="58" r="1.7" fill="#0D2860" stroke="white" stroke-width="0.7"/>
    <circle cx="50" cy="58" r="12" fill="none" stroke="#0D2860" stroke-width="0.9"/>
    <line x1="22" y1="73" x2="78" y2="73" stroke="#CBD5E8" stroke-width="0.6"/>
    <text x="50" y="77.5" text-anchor="middle" dominant-baseline="central" font-size="6" font-weight="700" font-family="Arial,sans-serif" fill="#0D2860" letter-spacing="0.1">תפסיק לנחש</text>
    <text x="50" y="83.5" text-anchor="middle" dominant-baseline="central" font-size="5" font-weight="700" font-family="Arial,sans-serif" fill="#0D2860" letter-spacing="0.1">תתחיל לנצח</text>
  </g>
  <path d="M50,5 Q36,16 20,11 L5,42 C5,62 22,82 50,97 C78,82 95,62 95,42 L80,11 Q64,16 50,5 Z" fill="none" stroke="#0A1F50" stroke-width="2.5"/>
</svg>
